<svg width="13" height="17" viewBox="0 0 13 17" fill="none" xmlns="http://www.w3.org/2000/svg">
<path d="M7.69647 0.077208C7.4058 0.0236104 7.15 0.256258 7.15 0.551831V2.85665C7.15 3.05617 7.27308 3.23095 7.43663 3.34522C7.85083 3.63463 8.12067 4.11076 8.12067 4.6503V6.35371C8.12067 7.23096 7.39267 7.95491 6.5 7.95491C5.59867 7.95491 4.87067 7.23096 4.87067 6.35371V4.6503C4.87067 4.11054 5.1466 3.63424 5.56316 3.34487C5.72702 3.23104 5.85 3.05617 5.85 2.85665V0.55246C5.85 0.256662 5.59402 0.0239281 5.30314 0.0776371C3.98926 0.320234 2.81385 0.948158 1.90667 1.83968C0.728 2.998 0 4.5992 0 6.35371V10.6122C0 14.1298 2.92067 17 6.5 17C10.0793 17 13 14.1298 13 10.6122V6.35371C13 3.2352 10.7078 0.632463 7.69647 0.077208Z" fill="white"/>
</svg>
